<svg width="55" height="55" viewBox="0 0 55 55" fill="none" xmlns="http://www.w3.org/2000/svg">
<circle cx="27.5" cy="27.5" r="27.5" fill="white"/>
<path d="M34.2692 15.2308C34.2692 16.9139 33.6006 18.528 32.4104 19.7182C31.2203 20.9083 29.6061 21.5769 27.923 21.5769C26.2399 21.5769 24.6258 20.9083 23.4356 19.7182C22.2455 18.528 21.5769 16.9139 21.5769 15.2308C21.5769 13.5477 22.2455 11.9335 23.4356 10.7434C24.6258 9.55322 26.2399 8.88461 27.923 8.88461C29.6061 8.88461 31.2203 9.55322 32.4104 10.7434C33.6006 11.9335 34.2692 13.5477 34.2692 15.2308ZM15.2324 39.1228C15.2868 35.7929 16.6478 32.6178 19.0218 30.2822C21.3958 27.9466 24.5927 26.6377 27.923 26.6377C31.2533 26.6377 34.4502 27.9466 36.8243 30.2822C39.1983 32.6178 40.5593 35.7929 40.6137 39.1228C36.6323 40.9484 32.303 41.8906 27.923 41.8846C23.3944 41.8846 19.096 40.8963 15.2324 39.1228Z" stroke="url(#paint0_linear_55_98)" stroke-width="3" stroke-linecap="round" stroke-linejoin="round"/>
<defs>
<linearGradient id="paint0_linear_55_98" x1="27.923" y1="8.88461" x2="27.923" y2="41.8846" gradientUnits="userSpaceOnUse">
<stop stop-color="#EB6715"/>
<stop offset="1" stop-color="#1A0C85"/>
</linearGradient>
</defs>
</svg>
