<svg width="120" height="120" viewBox="0 0 120 120" fill="none" xmlns="http://www.w3.org/2000/svg">
<g clip-path="url(#clip0_55_182)">
<path fill-rule="evenodd" clip-rule="evenodd" d="M15 25C15 22.3478 16.0536 19.8043 17.9289 17.9289C19.8043 16.0536 22.3478 15 25 15H95C97.6522 15 100.196 16.0536 102.071 17.9289C103.946 19.8043 105 22.3478 105 25V85C105 87.6522 103.946 90.1957 102.071 92.0711C100.196 93.9464 97.6522 95 95 95H88.09L89.47 97.765C89.7878 98.3544 89.984 99.0016 90.047 99.6682C90.1099 100.335 90.0383 101.007 89.8364 101.646C89.6345 102.284 89.3064 102.876 88.8716 103.385C88.4368 103.894 87.9041 104.311 87.3052 104.61C86.7063 104.91 86.0533 105.086 85.385 105.128C84.7167 105.171 84.0468 105.078 83.4149 104.857C82.7829 104.635 82.202 104.289 81.7064 103.839C81.2109 103.388 80.8108 102.843 80.53 102.235L76.91 95H43.09L39.47 102.235C39.1892 102.843 38.7891 103.388 38.2936 103.839C37.798 104.289 37.2171 104.635 36.5851 104.857C35.9532 105.078 35.2833 105.171 34.615 105.128C33.9467 105.086 33.2938 104.91 32.6948 104.61C32.0959 104.311 31.5632 103.894 31.1284 103.385C30.6936 102.876 30.3655 102.284 30.1636 101.646C29.9617 101.007 29.8901 100.335 29.953 99.6682C30.016 99.0016 30.2122 98.3544 30.53 97.765L31.91 95H25C22.3478 95 19.8043 93.9464 17.9289 92.0711C16.0536 90.1957 15 87.6522 15 85V25ZM40.11 85C40.04 84.9985 39.97 84.9985 39.9 85H25V25H55V85H40.11ZM65 85H79.89C79.96 84.9985 80.03 84.9985 80.1 85H95V25H65V85ZM45 45C46.3261 45 47.5979 45.5268 48.5355 46.4645C49.4732 47.4021 50 48.6739 50 50V60C50 61.3261 49.4732 62.5979 48.5355 63.5355C47.5979 64.4732 46.3261 65 45 65C43.6739 65 42.4021 64.4732 41.4645 63.5355C40.5268 62.5979 40 61.3261 40 60V50C40 48.6739 40.5268 47.4021 41.4645 46.4645C42.4021 45.5268 43.6739 45 45 45ZM75 45C76.3261 45 77.5979 45.5268 78.5355 46.4645C79.4732 47.4021 80 48.6739 80 50V60C80 61.3261 79.4732 62.5979 78.5355 63.5355C77.5979 64.4732 76.3261 65 75 65C73.6739 65 72.4021 64.4732 71.4645 63.5355C70.5268 62.5979 70 61.3261 70 60V50C70 48.6739 70.5268 47.4021 71.4645 46.4645C72.4021 45.5268 73.6739 45 75 45Z" fill="#716A97"/>
</g>
<defs>
<clipPath id="clip0_55_182">
<rect width="120" height="120" fill="white"/>
</clipPath>
</defs>
</svg>
