<svg width="100" height="100" viewBox="0 0 100 100" fill="none" xmlns="http://www.w3.org/2000/svg">
<path d="M30.9625 12.5L12.5 33.6V87.5H87.5V33.6L69.0375 12.5H30.9625ZM29.5438 6.25H70.4562C70.901 6.24967 71.3407 6.34429 71.746 6.52752C72.1512 6.71075 72.5127 6.97837 72.8063 7.3125L92.975 30.3688C93.4738 30.9377 93.7491 31.6684 93.75 32.425V90.625C93.75 91.4538 93.4208 92.2487 92.8347 92.8347C92.2487 93.4208 91.4538 93.75 90.625 93.75H9.375C8.5462 93.75 7.75134 93.4208 7.16529 92.8347C6.57924 92.2487 6.25 91.4538 6.25 90.625V32.425C6.24937 31.6662 6.52483 30.9331 7.025 30.3625L27.1875 7.325C27.4806 6.9878 27.8426 6.71736 28.249 6.53192C28.6555 6.34647 29.097 6.25034 29.5438 6.25Z" fill="#716A97"/>
<path d="M6.25 31.25H93.75V37.5H6.25V31.25Z" fill="#716A97"/>
<path d="M43.75 32.0188V62.5H56.25V32.0188L51.375 12.5H48.625L43.75 32.0188ZM43.75 6.25H56.25L62.5 31.25V65.625C62.5 66.4538 62.1708 67.2487 61.5847 67.8347C60.9987 68.4208 60.2038 68.75 59.375 68.75H40.625C39.7962 68.75 39.0013 68.4208 38.4153 67.8347C37.8292 67.2487 37.5 66.4538 37.5 65.625V31.25L43.75 6.25Z" fill="#716A97"/>
</svg>
