<svg width="38" height="25" viewBox="0 0 38 25" fill="none" xmlns="http://www.w3.org/2000/svg">
<path fill-rule="evenodd" clip-rule="evenodd" d="M5.67529 6.08974C5.67529 5.76672 5.8746 5.45693 6.22938 5.22852C6.58416 5.00012 7.06534 4.8718 7.56707 4.8718H30.2684C30.7701 4.8718 31.2513 5.00012 31.6061 5.22852C31.9608 5.45693 32.1601 5.76672 32.1601 6.08974C32.1601 6.41276 31.9608 6.72255 31.6061 6.95096C31.2513 7.17937 30.7701 7.30769 30.2684 7.30769H7.56707C7.06534 7.30769 6.58416 7.17937 6.22938 6.95096C5.8746 6.72255 5.67529 6.41276 5.67529 6.08974ZM5.67529 12.1795C5.67529 11.8565 5.8746 11.5467 6.22938 11.3183C6.58416 11.0899 7.06534 10.9615 7.56707 10.9615H30.2684C30.7701 10.9615 31.2513 11.0899 31.6061 11.3183C31.9608 11.5467 32.1601 11.8565 32.1601 12.1795C32.1601 12.5025 31.9608 12.8123 31.6061 13.0407C31.2513 13.2691 30.7701 13.3974 30.2684 13.3974H7.56707C7.06534 13.3974 6.58416 13.2691 6.22938 13.0407C5.8746 12.8123 5.67529 12.5025 5.67529 12.1795ZM5.67529 18.2692C5.67529 17.9462 5.8746 17.6364 6.22938 17.408C6.58416 17.1796 7.06534 17.0513 7.56707 17.0513H18.9177C19.4194 17.0513 19.9006 17.1796 20.2554 17.408C20.6102 17.6364 20.8095 17.9462 20.8095 18.2692C20.8095 18.5923 20.6102 18.902 20.2554 19.1305C19.9006 19.3589 19.4194 19.4872 18.9177 19.4872H7.56707C7.06534 19.4872 6.58416 19.3589 6.22938 19.1305C5.8746 18.902 5.67529 18.5923 5.67529 18.2692Z" fill="white"/>
</svg>
