<svg width="55" height="55" viewBox="0 0 55 55" fill="none" xmlns="http://www.w3.org/2000/svg">
<circle cx="27.5" cy="27.5" r="27.5" fill="white" fill-opacity="0.34"/>
<path fill-rule="evenodd" clip-rule="evenodd" d="M27.6736 19.4246C27.9039 19.6896 28.0298 20.0449 28.0235 20.4126C28.0172 20.7803 27.8794 21.1301 27.6402 21.3853L21.0603 28.2479L27.6402 35.1105C27.7644 35.2353 27.8648 35.3863 27.9353 35.5548C28.0058 35.7233 28.045 35.9057 28.0507 36.0912C28.0564 36.2768 28.0283 36.4617 27.9683 36.6351C27.9082 36.8084 27.8173 36.9666 27.7009 37.1004C27.5846 37.2341 27.4452 37.3407 27.291 37.4137C27.1368 37.4867 26.9709 37.5247 26.8032 37.5254C26.6355 37.5261 26.4694 37.4896 26.3146 37.4179C26.1599 37.3463 26.0198 37.241 25.9025 37.1083L18.3835 29.2468C18.2622 29.1174 18.1657 28.9622 18.0999 28.7906C18.034 28.619 18 28.4344 18 28.2479C18 28.0614 18.034 27.8769 18.0999 27.7052C18.1657 27.5336 18.2622 27.3785 18.3835 27.2491L25.9025 19.3876C26.1419 19.1326 26.4629 18.9933 26.795 19.0002C27.1271 19.0072 27.4431 19.1598 27.6736 19.4246Z" fill="#29154B"/>
</svg>
