<svg width="41" height="41" viewBox="0 0 41 41" fill="none" xmlns="http://www.w3.org/2000/svg">
<path fill-rule="evenodd" clip-rule="evenodd" d="M18.2769 7.1077C15.3146 7.1077 12.4737 8.28446 10.3791 10.3791C8.28443 12.4737 7.10768 15.3147 7.10768 18.2769C7.10768 21.2392 8.28443 24.0801 10.3791 26.1748C12.4737 28.2694 15.3146 29.4462 18.2769 29.4462C21.2392 29.4462 24.0801 28.2694 26.1747 26.1748C28.2694 24.0801 29.4461 21.2392 29.4461 18.2769C29.4461 15.3147 28.2694 12.4737 26.1747 10.3791C24.0801 8.28446 21.2392 7.1077 18.2769 7.1077ZM4.06152 18.2769C4.06172 16.0038 4.60701 13.7639 5.65168 11.7451C6.69634 9.72626 8.2099 7.98738 10.0654 6.67433C11.9209 5.36127 14.0642 4.51232 16.3156 4.1987C18.567 3.88508 20.8607 4.11592 23.0044 4.87187C25.1481 5.62782 27.0793 6.88683 28.636 8.54328C30.1926 10.1997 31.3293 12.2053 31.9508 14.3918C32.5722 16.5784 32.6602 18.882 32.2075 21.1096C31.7547 23.3371 30.7744 25.4236 29.3487 27.194L36.1071 33.9545C36.2567 34.0939 36.3767 34.2621 36.46 34.4489C36.5432 34.6357 36.588 34.8374 36.5916 35.0419C36.5952 35.2464 36.5576 35.4495 36.481 35.6392C36.4044 35.8288 36.2904 36.0011 36.1457 36.1457C36.0011 36.2904 35.8288 36.4044 35.6392 36.481C35.4495 36.5576 35.2464 36.5952 35.0419 36.5916C34.8374 36.588 34.6357 36.5432 34.4489 36.46C34.262 36.3768 34.0939 36.2567 33.9544 36.1071L27.194 29.3487C25.1055 31.0309 22.5836 32.0881 19.9198 32.398C17.256 32.708 14.5588 32.2581 12.1398 31.1003C9.72082 29.9425 7.67867 28.124 6.24922 25.855C4.81977 23.5859 4.06134 20.9587 4.06152 18.2769Z" fill="url(#paint0_linear_55_148)"/>
<defs>
<linearGradient id="paint0_linear_55_148" x1="20.3267" y1="4.06274" x2="20.3267" y2="36.5918" gradientUnits="userSpaceOnUse">
<stop stop-color="#EB6715"/>
<stop offset="1" stop-color="#29154B"/>
</linearGradient>
</defs>
</svg>
