<svg width="55" height="55" viewBox="0 0 55 55" fill="none" xmlns="http://www.w3.org/2000/svg">
<circle cx="27.5" cy="27.5" r="27.5" fill="white"/>
<path d="M44.8463 33.7108V38.7877C44.8482 39.259 44.7516 39.7255 44.5628 40.1573C44.374 40.5892 44.0971 40.9768 43.7498 41.2955C43.4025 41.6141 42.9925 41.8567 42.546 42.0076C42.0995 42.1586 41.6264 42.2147 41.157 42.1723C35.9495 41.6065 30.9473 39.827 26.5524 36.9769C22.4635 34.3787 18.9968 30.912 16.3986 26.8231C13.5385 22.4082 11.7587 17.3817 11.2032 12.1508C11.1609 11.6828 11.2165 11.2111 11.3665 10.7658C11.5165 10.3205 11.7575 9.91131 12.0743 9.56427C12.3911 9.21723 12.7767 8.93996 13.2065 8.7501C13.6364 8.56025 14.101 8.46197 14.5709 8.46153H19.6478C20.4691 8.45345 21.2653 8.74428 21.888 9.27981C22.5107 9.81535 22.9175 10.5591 23.0324 11.3723C23.2467 12.997 23.6441 14.5923 24.217 16.1277C24.4447 16.7334 24.494 17.3917 24.359 18.0246C24.2241 18.6574 23.9105 19.2383 23.4555 19.6985L21.3063 21.8477C23.7154 26.0845 27.2233 29.5924 31.4601 32.0015L33.6093 29.8523C34.0695 29.3973 34.6504 29.0837 35.2832 28.9488C35.9161 28.8138 36.5744 28.8631 37.1801 29.0908C38.7155 29.6637 40.3108 30.0611 41.9355 30.2754C42.7576 30.3913 43.5083 30.8054 44.045 31.4388C44.5817 32.0722 44.8669 32.8808 44.8463 33.7108Z" stroke="url(#paint0_linear_55_102)" stroke-width="4" stroke-linecap="round" stroke-linejoin="round"/>
<defs>
<linearGradient id="paint0_linear_55_102" x1="28.0184" y1="8.46136" x2="28.0184" y2="42.186" gradientUnits="userSpaceOnUse">
<stop stop-color="#EB6715"/>
<stop offset="1" stop-color="#29154B"/>
</linearGradient>
</defs>
</svg>
