<svg width="55" height="55" viewBox="0 0 55 55" fill="none" xmlns="http://www.w3.org/2000/svg">
<circle cx="27.5" cy="27.5" r="27.5" fill="white" fill-opacity="0.34"/>
<path fill-rule="evenodd" clip-rule="evenodd" d="M23.347 35.6275C23.1355 35.3841 23.0199 35.0576 23.0256 34.7199C23.0314 34.3822 23.158 34.0608 23.3777 33.8264L29.4221 27.5223L23.3777 21.2183C23.2636 21.1037 23.1715 20.9649 23.1067 20.8102C23.0419 20.6555 23.0059 20.4879 23.0007 20.3174C22.9955 20.147 23.0212 19.9771 23.0764 19.8179C23.1316 19.6586 23.2151 19.5133 23.322 19.3904C23.4288 19.2676 23.5569 19.1697 23.6985 19.1026C23.8402 19.0356 23.9925 19.0007 24.1466 19C24.3007 18.9993 24.4533 19.0329 24.5954 19.0987C24.7375 19.1645 24.8663 19.2613 24.974 19.3832L31.881 26.6048C31.9924 26.7237 32.081 26.8662 32.1416 27.0238C32.2021 27.1815 32.2333 27.351 32.2333 27.5223C32.2333 27.6936 32.2021 27.8632 32.1416 28.0208C32.081 28.1785 31.9924 28.321 31.881 28.4399L24.974 35.6615C24.7541 35.8957 24.4593 36.0237 24.1542 36.0173C23.8491 36.0109 23.5588 35.8707 23.347 35.6275Z" fill="#29154B"/>
</svg>
