<svg width="100" height="100" viewBox="0 0 100 100" fill="none" xmlns="http://www.w3.org/2000/svg">
<path d="M29.3751 26.925C30.5091 27.3242 31.716 27.4733 32.913 27.362C34.11 27.2508 35.2688 26.8819 36.3098 26.2807C37.3509 25.6794 38.2495 24.86 38.944 23.8787C39.6385 22.8975 40.1125 21.7776 40.3334 20.5959L41.6667 13.4292C47.1493 12.1803 52.8425 12.1803 58.3251 13.4292L59.6668 20.5959C59.8877 21.7776 60.3617 22.8975 61.0562 23.8787C61.7507 24.86 62.6493 25.6794 63.6903 26.2807C64.7313 26.8819 65.8901 27.2508 67.0872 27.362C68.2842 27.4733 69.4911 27.3242 70.6251 26.925L77.4959 24.5084C81.3205 28.6282 84.17 33.5553 85.8334 38.925L80.2918 43.675C79.3791 44.4574 78.6464 45.4279 78.1441 46.52C77.6418 47.6121 77.3817 48.8 77.3817 50.0021C77.3817 51.2042 77.6418 52.3921 78.1441 53.4842C78.6464 54.5763 79.3791 55.5469 80.2918 56.3292L85.8334 61.075C84.17 66.4448 81.3205 71.3718 77.4959 75.4917L70.6209 73.075C69.4869 72.6759 68.28 72.5268 67.083 72.638C65.886 72.7492 64.7272 73.1181 63.6862 73.7194C62.6451 74.3207 61.7465 75.14 61.052 76.1213C60.3575 77.1026 59.8835 78.2225 59.6626 79.4042L58.3334 86.5709C52.8509 87.8198 47.1576 87.8198 41.6751 86.5709L40.3334 79.4042C40.1125 78.2225 39.6385 77.1026 38.944 76.1213C38.2495 75.14 37.3509 74.3207 36.3098 73.7194C35.2688 73.1181 34.11 72.7492 32.913 72.638C31.716 72.5268 30.5091 72.6759 29.3751 73.075L22.5042 75.4917C18.6796 71.3718 15.8302 66.4448 14.1667 61.075L19.7084 56.325C20.6204 55.5427 21.3524 54.5724 21.8543 53.4807C22.3562 52.3889 22.616 51.2016 22.616 50C22.616 48.7985 22.3562 47.6111 21.8543 46.5194C21.3524 45.4276 20.6204 44.4574 19.7084 43.675L14.1667 38.925C15.829 33.5557 18.677 28.6287 22.5001 24.5084L29.3751 26.925ZM50.0001 37.5C53.3153 37.5 56.4947 38.817 58.8389 41.1612C61.1831 43.5054 62.5001 46.6848 62.5001 50C62.5001 53.3152 61.1831 56.4947 58.8389 58.8389C56.4947 61.1831 53.3153 62.5 50.0001 62.5C46.6849 62.5 43.5055 61.1831 41.1612 58.8389C38.817 56.4947 37.5001 53.3152 37.5001 50C37.5001 46.6848 38.817 43.5054 41.1612 41.1612C43.5055 38.817 46.6849 37.5 50.0001 37.5Z" stroke="#716A97" stroke-width="4" stroke-linecap="round" stroke-linejoin="round"/>
</svg>
