<svg width="65" height="65" viewBox="0 0 65 65" fill="none" xmlns="http://www.w3.org/2000/svg">
<circle cx="32.5" cy="32.5" r="32.5" fill="white"/>
<path d="M13.5 12H16.272C17.292 12 18.182 12.686 18.446 13.67L19.212 16.544M19.212 16.544C30.3533 16.2317 41.4839 17.4703 52.284 20.224C50.636 25.132 48.678 29.9 46.436 34.5H24M19.212 16.544L24 34.5M24 34.5C22.4087 34.5 20.8826 35.1321 19.7574 36.2573C18.6321 37.3825 18 38.9087 18 40.5H49.5M21 46.5C21 46.8978 20.842 47.2793 20.5607 47.5606C20.2794 47.8419 19.8978 48 19.5 48C19.1022 48 18.7206 47.8419 18.4393 47.5606C18.158 47.2793 18 46.8978 18 46.5C18 46.1021 18.158 45.7206 18.4393 45.4393C18.7206 45.158 19.1022 45 19.5 45C19.8978 45 20.2794 45.158 20.5607 45.4393C20.842 45.7206 21 46.1021 21 46.5ZM46.5 46.5C46.5 46.8978 46.342 47.2793 46.0607 47.5606C45.7794 47.8419 45.3978 48 45 48C44.6022 48 44.2206 47.8419 43.9393 47.5606C43.658 47.2793 43.5 46.8978 43.5 46.5C43.5 46.1021 43.658 45.7206 43.9393 45.4393C44.2206 45.158 44.6022 45 45 45C45.3978 45 45.7794 45.158 46.0607 45.4393C46.342 45.7206 46.5 46.1021 46.5 46.5Z" stroke="url(#paint0_linear_55_136)" stroke-width="3" stroke-linecap="round" stroke-linejoin="round"/>
<defs>
<linearGradient id="paint0_linear_55_136" x1="32.892" y1="12" x2="32.892" y2="48" gradientUnits="userSpaceOnUse">
<stop stop-color="#EB6715"/>
<stop offset="1" stop-color="#1A0C85"/>
</linearGradient>
</defs>
</svg>
