<svg width="35" height="35" viewBox="0 0 35 35" fill="none" xmlns="http://www.w3.org/2000/svg">
<circle cx="17.5" cy="17.5" r="17.5" fill="url(#paint0_linear_59_310)" fill-opacity="0.66"/>
<path d="M26.875 19.2969C26.7578 19.7266 26.3672 20 25.9375 20H14.4922L14.7656 21.25H25.2344C25.8203 21.25 26.2891 21.8359 26.1328 22.4219L25.9375 23.3594C26.6797 23.7109 27.1875 24.4531 27.1875 25.3125C27.1875 26.5234 26.1719 27.5 25 27.5C23.7891 27.5 22.8125 26.5234 22.8125 25.3125C22.8125 24.7266 23.0469 24.1797 23.4375 23.75H15.2734C15.6641 24.1797 15.9375 24.7266 15.9375 25.3125C15.9375 26.5234 14.9219 27.5 13.75 27.5C12.5391 27.5 11.5625 26.5234 11.5625 25.3125C11.5625 24.5312 11.9922 23.8281 12.6562 23.4375L9.88281 10H7.1875C6.64062 10 6.25 9.60938 6.25 9.0625V8.4375C6.25 7.92969 6.64062 7.5 7.1875 7.5H11.1719C11.6016 7.5 11.9922 7.85156 12.1094 8.28125L12.4609 10H27.7734C28.3984 10 28.8281 10.5859 28.7109 11.1719L26.875 19.2969Z" fill="black"/>
<defs>
<linearGradient id="paint0_linear_59_310" x1="17.5" y1="0" x2="17.5" y2="35" gradientUnits="userSpaceOnUse">
<stop stop-color="#FF670D"/>
<stop offset="1" stop-color="#0063E5"/>
</linearGradient>
</defs>
</svg>
