<svg width="100" height="100" viewBox="0 0 100 100" fill="none" xmlns="http://www.w3.org/2000/svg">
<path d="M53.5715 17.8571C53.5715 14.0683 52.0664 10.4347 49.3873 7.7556C46.7083 5.07651 43.0746 3.57141 39.2858 3.57141C35.497 3.57141 31.8634 5.07651 29.1843 7.7556C26.5052 10.4347 25.0001 14.0683 25.0001 17.8571V60.7143M53.5715 32.1428V39.2857M3.57153 60.7143H96.4287V75C96.4287 80.6832 94.171 86.1336 90.1524 90.1523C86.1338 94.1709 80.6833 96.4286 75.0001 96.4286H25.0001C19.3169 96.4286 13.8665 94.1709 9.84782 90.1523C5.82918 86.1336 3.57153 80.6832 3.57153 75V60.7143Z" stroke="#716A97" stroke-width="4.57143" stroke-linecap="round" stroke-linejoin="round"/>
</svg>
