<svg width="47" height="76" viewBox="0 0 47 76" fill="none" xmlns="http://www.w3.org/2000/svg">
<path d="M7.83333 0C3.48583 0 0 3.37458 0 7.58333V53.0833C0 57.2921 3.48583 60.6667 7.83333 60.6667H11.75V68.25H0V75.8333H11.75C16.0975 75.8333 19.5833 72.4587 19.5833 68.25V60.6667H27.4167V68.25C27.4167 72.4587 30.9025 75.8333 35.25 75.8333H47V68.25H35.25V60.6667H39.1667C43.5142 60.6667 47 57.2921 47 53.0833V7.58333C47 3.37458 43.5142 0 39.1667 0H7.83333ZM23.5 11.2612C25.5775 11.2612 27.57 12.0602 29.039 13.4824C30.508 14.9045 31.3333 16.8334 31.3333 18.8446C31.3333 20.8558 30.508 22.7847 29.039 24.2068C27.57 25.629 25.5775 26.4279 23.5 26.4279C21.4225 26.4279 19.43 25.629 17.961 24.2068C16.492 22.7847 15.6667 20.8558 15.6667 18.8446C15.6667 16.8334 16.492 14.9045 17.961 13.4824C19.43 12.0602 21.4225 11.2612 23.5 11.2612ZM15.6667 47.3958H31.3333V53.0833H15.6667V47.3958Z" fill="#1A0C85"/>
</svg>
