<svg width="94" height="91" viewBox="0 0 94 91" fill="none" xmlns="http://www.w3.org/2000/svg">
<path d="M31.3333 7.58337C26.9858 7.58337 23.5 10.958 23.5 15.1667V60.6667C23.5 64.8755 26.9858 68.25 31.3333 68.25H35.25V75.8334H23.5V83.4167H35.25C39.5975 83.4167 43.0833 80.0421 43.0833 75.8334V68.25H50.9167V75.8334C50.9167 80.0421 54.4025 83.4167 58.75 83.4167H70.5V75.8334H58.75V68.25H62.6667C67.0142 68.25 70.5 64.8755 70.5 60.6667V15.1667C70.5 10.958 67.0142 7.58337 62.6667 7.58337H31.3333ZM47 18.8446C49.0775 18.8446 51.07 19.6436 52.539 21.0657C54.008 22.4879 54.8333 24.4167 54.8333 26.428C54.8333 28.4392 54.008 30.368 52.539 31.7902C51.07 33.2123 49.0775 34.0113 47 34.0113C44.9225 34.0113 42.93 33.2123 41.461 31.7902C39.992 30.368 39.1667 28.4392 39.1667 26.428C39.1667 24.4167 39.992 22.4879 41.461 21.0657C42.93 19.6436 44.9225 18.8446 47 18.8446ZM39.1667 54.9792H54.8333V60.6667H39.1667V54.9792Z" fill="#1A0C85"/>
</svg>
